<svg preserveAspectRatio="none" width="100%" height="100%" overflow="visible" style="display: block;" viewBox="0 0 16.9709 23" fill="none" xmlns="http://www.w3.org/2000/svg">
<g id="Component 1">
<path id="Vector" d="M14.5794 18.1751C16.1956 16.5146 16.9926 14.5165 16.9704 12.1808C16.9483 9.84507 16.107 7.85804 14.4465 6.21971C12.7861 4.58138 10.7714 3.77328 8.40242 3.79542C6.03348 3.81756 4.04092 4.65886 2.42473 6.31933C0.786399 7.9798 -0.0216968 9.98897 0.000442792 12.3468C0.0225824 14.7047 0.863887 16.6917 2.52436 18.3079C4.18483 19.9241 6.19953 20.7211 8.56847 20.699C10.9374 20.6769 12.941 19.8356 14.5794 18.1751ZM10.561 8.47795C10.8046 8.23441 11.0702 8.10157 11.3581 8.07943C11.6459 8.05729 11.9448 8.16799 12.2547 8.41153C12.5204 8.69934 12.6422 8.99269 12.62 9.29158C12.5979 9.59046 12.465 9.86167 12.2215 10.1052L10.1293 12.2306L12.3211 14.3892C12.8525 14.9206 12.8525 15.4741 12.3211 16.0497C11.7898 16.6032 11.2252 16.581 10.6274 15.9833L8.50205 13.8911L6.27702 16.1493C5.76781 16.6585 5.23646 16.6475 4.68297 16.1161C4.12948 15.5626 4.10734 15.0313 4.61655 14.5221L6.84158 12.2638L4.58334 10.0388C4.09627 9.55172 4.12948 9.0093 4.68297 8.41153C5.23646 7.92446 5.74567 7.91339 6.2106 8.37832L8.46884 10.6033L10.561 8.47795Z" fill="var(--fill-0, white)"/>
</g>
</svg>
