<svg preserveAspectRatio="none" width="100%" height="100%" overflow="visible" style="display: block;" viewBox="0 0 40 40" fill="none" xmlns="http://www.w3.org/2000/svg">
<g id="Component 3">
<path id="Vector" fill-rule="evenodd" clip-rule="evenodd" d="M4.937 12.7508L16.7203 3.64551C16.7209 3.64509 16.7198 3.64597 16.7203 3.64551C16.7206 3.64534 16.7225 3.64386 16.7227 3.64369C17.6609 2.91854 18.8131 2.52511 19.9989 2.52511C21.1847 2.52511 22.337 2.91854 23.2751 3.64369C23.2758 3.64423 23.2744 3.64314 23.2751 3.64369C23.2752 3.64377 23.2774 3.64543 23.2775 3.64551L35.0589 12.7493C35.706 13.2493 36.232 13.8922 36.5929 14.6261C36.9543 15.3607 37.1423 16.1683 37.1429 16.9869V34.3109C37.1429 35.7317 36.5786 37.0943 35.5737 38.0991C34.5691 39.1037 33.2066 39.668 31.7857 39.668H23.2143C22.0253 39.668 20.8816 39.2289 20 38.4403C19.1184 39.2289 17.9747 39.668 16.7857 39.668H8.21428C6.79349 39.668 5.43089 39.1037 4.4262 38.0991C3.42155 37.0943 2.85714 35.7317 2.85714 34.3109V16.9901C2.85714 16.9902 2.85714 16.9899 2.85714 16.9901C2.85699 16.1737 3.04342 15.3676 3.40221 14.6342C3.76157 13.8997 4.2843 13.2572 4.93037 12.756L4.937 12.7508ZM7.14286 16.9895C7.14271 16.826 7.18 16.6646 7.25186 16.5177C7.32374 16.3708 7.42828 16.2423 7.55751 16.1421L19.3432 7.03491C19.5309 6.88966 19.7616 6.81083 19.9989 6.81083C20.2363 6.81083 20.4669 6.88966 20.6547 7.03491L32.4403 16.1421C32.57 16.2421 32.6749 16.3705 32.7471 16.5174C32.8194 16.6643 32.8571 16.8258 32.8571 16.9895V34.3109C32.8571 34.5951 32.7443 34.8677 32.5434 35.0686C32.3423 35.2694 32.07 35.3823 31.7857 35.3823H23.2143C23.0722 35.3823 22.9359 35.326 22.8355 35.2254C22.735 35.1251 22.6786 34.9889 22.6786 34.8466V27.1681C22.6786 26.4577 22.3964 25.7764 21.894 25.2741C21.3917 24.7717 20.7104 24.4895 20 24.4895C19.2896 24.4895 18.6083 24.7717 18.106 25.2741C17.6036 25.7764 17.3214 26.4577 17.3214 27.1681V34.8466C17.3214 34.9889 17.265 35.1251 17.1645 35.2254C17.0641 35.326 16.9278 35.3823 16.7857 35.3823H8.21428C7.93011 35.3823 7.6576 35.2694 7.45668 35.0686C7.25574 34.8677 7.14286 34.5951 7.14286 34.3109V16.9895Z" fill="var(--fill-0, white)"/>
<path id="Vector_2" d="M32.8571 16.9895C32.8571 16.8258 32.8194 16.6643 32.7471 16.5174C32.6749 16.3705 32.57 16.2421 32.4403 16.1421L20.6547 7.03491C20.4669 6.88966 20.2363 6.81083 19.9989 6.81083C19.7616 6.81083 19.5309 6.88966 19.3432 7.03491L7.55751 16.1421C7.42829 16.2423 7.32374 16.3708 7.25186 16.5177C7.18 16.6646 7.14271 16.826 7.14286 16.9895V34.3109C7.14286 34.5951 7.25574 34.8677 7.45669 35.0686C7.6576 35.2694 7.93011 35.3823 8.21429 35.3823H16.7857C16.9278 35.3823 17.0641 35.326 17.1645 35.2254C17.265 35.1251 17.3214 34.9889 17.3214 34.8466V27.1681C17.3214 26.4577 17.6036 25.7764 18.106 25.2741C18.6083 24.7717 19.2896 24.4895 20 24.4895C20.7104 24.4895 21.3917 24.7717 21.894 25.2741C22.3964 25.7764 22.6786 26.4577 22.6786 27.1681V34.8466C22.6786 34.9889 22.735 35.1251 22.8355 35.2254C22.9359 35.326 23.0722 35.3823 23.2143 35.3823H31.7857C32.07 35.3823 32.3423 35.2694 32.5434 35.0686C32.7443 34.8677 32.8571 34.5951 32.8571 34.3109V16.9895Z" fill="var(--fill-0, #323338)"/>
</g>
</svg>
