<svg preserveAspectRatio="none" width="100%" height="100%" overflow="visible" style="display: block;" viewBox="0 0 12 12" fill="none" xmlns="http://www.w3.org/2000/svg">
<g id="Component 3">
<path id="Vector" fill-rule="evenodd" clip-rule="evenodd" d="M2.73354 2.73356C3.59986 1.86724 4.77484 1.38054 6 1.38054C7.22514 1.38054 8.40012 1.86724 9.26646 2.73356C10.1328 3.59987 10.6195 4.77486 10.6195 6C10.6195 7.2252 10.1328 8.40018 9.26646 9.26646C8.40012 10.1328 7.22514 10.6195 6 10.6195C4.77484 10.6195 3.59986 10.1328 2.73354 9.26646C1.86722 8.40018 1.38052 7.2252 1.38052 6C1.38052 4.77486 1.86722 3.59987 2.73354 2.73356ZM6 2.28054C5.01353 2.28054 4.06747 2.67241 3.36994 3.36995C2.67239 4.06749 2.28052 5.01355 2.28052 6C2.28052 6.98646 2.67239 7.93254 3.36994 8.6301C4.06747 9.3276 5.01353 9.71952 6 9.71952C6.98646 9.71952 7.93254 9.3276 8.63004 8.6301C9.3276 7.93254 9.71946 6.98646 9.71946 6C9.71946 5.01355 9.3276 4.06749 8.63004 3.36995C7.93254 2.67241 6.98646 2.28054 6 2.28054ZM6 5.55004C6.24852 5.55004 6.45 5.75151 6.45 6.00006V8.08476C6.45 8.33328 6.24852 8.53476 6 8.53476C5.75147 8.53476 5.55 8.33328 5.55 8.08476V6.00006C5.55 5.75151 5.75147 5.55004 6 5.55004ZM5.72481 3.73001C5.82348 3.66409 5.93948 3.6289 6.05814 3.6289C6.21726 3.6289 6.3699 3.69211 6.4824 3.80463C6.59496 3.91715 6.65814 4.06976 6.65814 4.2289C6.65814 4.34756 6.62298 4.46356 6.55704 4.56224C6.4911 4.66091 6.39738 4.73781 6.28776 4.78322C6.17814 4.82863 6.05748 4.84052 5.9411 4.81736C5.82472 4.79422 5.7178 4.73707 5.63389 4.65316C5.54998 4.56925 5.49283 4.46233 5.46968 4.34595C5.44653 4.22956 5.45842 4.10892 5.50382 3.99928C5.54924 3.88965 5.62614 3.79594 5.72481 3.73001Z" fill="var(--fill-0, #676879)"/>
</g>
</svg>
